{
    "asset" : {
        "generator" : "Khronos glTF Blender I/O v1.8.19",
        "version" : "2.0"
    },
    "extensionsUsed" : [
        "KHR_materials_transmission"
    ],
    "scene" : 0,
    "scenes" : [
        {
            "name" : "Scene",
            "nodes" : [
                0
            ]
        }
    ],
    "nodes" : [
        {
            "mesh" : 0,
            "name" : "Plane",
            "rotation" : [
                0.7071068286895752,
                0,
                0,
                0.7071068286895752
            ],
            "scale" : [
                0.6864470839500427,
                0.6864470839500427,
                0.6864470839500427
            ],
            "translation" : [
                0.03616440296173096,
                0,
                0
            ]
        }
    ],
    "materials" : [
        {
            "doubleSided" : true,
            "name" : "White Plastic",
            "pbrMetallicRoughness" : {
                "baseColorFactor" : [
                    0.800000011920929,
                    0.800000011920929,
                    0.800000011920929,
                    1
                ],
                "metallicFactor" : 0,
                "roughnessFactor" : 0.20000000298023224
            }
        },
        {
            "doubleSided" : true,
            "name" : "Metal",
            "pbrMetallicRoughness" : {
                "baseColorFactor" : [
                    0.800000011920929,
                    0.800000011920929,
                    0.800000011920929,
                    1
                ],
                "roughnessFactor" : 0.20000000298023224
            }
        },
        {
            "doubleSided" : true,
            "emissiveFactor" : [
                1,
                1,
                1
            ],
            "emissiveTexture" : {
                "index" : 0
            },
            "name" : "Black Plastic",
            "pbrMetallicRoughness" : {
                "baseColorFactor" : [
                    0,
                    0,
                    0,
                    1
                ],
                "metallicFactor" : 0,
                "metallicRoughnessTexture" : {
                    "index" : 1
                },
                "roughnessFactor" : 2
            }
        },
        {
            "doubleSided" : true,
            "extensions" : {
                "KHR_materials_transmission" : {
                    "transmissionFactor" : 1
                }
            },
            "name" : "Glass",
            "pbrMetallicRoughness" : {
                "baseColorFactor" : [
                    0.800000011920929,
                    0.800000011920929,
                    0.800000011920929,
                    1
                ],
                "metallicFactor" : 0,
                "roughnessFactor" : 0
            }
        },
        {
            "doubleSided" : true,
            "name" : "Black Plastic.001",
            "pbrMetallicRoughness" : {
                "baseColorFactor" : [
                    0,
                    0,
                    0,
                    1
                ],
                "metallicFactor" : 0,
                "roughnessFactor" : 0.20000000298023224
            }
        }
    ],
    "meshes" : [
        {
            "name" : "Plane",
            "primitives" : [
                {
                    "attributes" : {
                        "POSITION" : 0,
                        "NORMAL" : 1,
                        "TEXCOORD_0" : 2
                    },
                    "indices" : 3,
                    "material" : 0
                },
                {
                    "attributes" : {
                        "POSITION" : 4,
                        "NORMAL" : 5,
                        "TEXCOORD_0" : 6
                    },
                    "indices" : 7,
                    "material" : 1
                },
                {
                    "attributes" : {
                        "POSITION" : 8,
                        "NORMAL" : 9,
                        "TEXCOORD_0" : 10
                    },
                    "indices" : 11,
                    "material" : 2
                },
                {
                    "attributes" : {
                        "POSITION" : 12,
                        "NORMAL" : 13,
                        "TEXCOORD_0" : 14
                    },
                    "indices" : 15,
                    "material" : 3
                },
                {
                    "attributes" : {
                        "POSITION" : 16,
                        "NORMAL" : 17,
                        "TEXCOORD_0" : 18
                    },
                    "indices" : 19,
                    "material" : 4
                }
            ]
        }
    ],
    "textures" : [
        {
            "sampler" : 0,
            "source" : 0
        },
        {
            "sampler" : 0,
            "source" : 1
        }
    ],
    "images" : [
        {
            "mimeType" : "image/png",
            "name" : "frame",
            "uri" : "textures/frame.png"
        },
        {
            "mimeType" : "image/png",
            "name" : "smudges-001",
            "uri" : "textures/smudges-001.png"
        }
    ],
    "accessors" : [
        {
            "bufferView" : 0,
            "componentType" : 5126,
            "count" : 800,
            "max" : [
                1,
                0.20011842250823975,
                2.059654712677002
            ],
            "min" : [
                -1.055328607559204,
                -0.013377915136516094,
                -2.145303726196289
            ],
            "type" : "VEC3"
        },
        {
            "bufferView" : 1,
            "componentType" : 5126,
            "count" : 800,
            "type" : "VEC3"
        },
        {
            "bufferView" : 2,
            "componentType" : 5126,
            "count" : 800,
            "type" : "VEC2"
        },
        {
            "bufferView" : 3,
            "componentType" : 5123,
            "count" : 2982,
            "type" : "SCALAR"
        },
        {
            "bufferView" : 4,
            "componentType" : 5126,
            "count" : 471,
            "max" : [
                1.017782211303711,
                0.20011836290359497,
                -0.006392359733581543
            ],
            "min" : [
                -0.19226539134979248,
                0.02794923633337021,
                -1.1809109449386597
            ],
            "type" : "VEC3"
        },
        {
            "bufferView" : 5,
            "componentType" : 5126,
            "count" : 471,
            "type" : "VEC3"
        },
        {
            "bufferView" : 6,
            "componentType" : 5126,
            "count" : 471,
            "type" : "VEC2"
        },
        {
            "bufferView" : 7,
            "componentType" : 5123,
            "count" : 1992,
            "type" : "SCALAR"
        },
        {
            "bufferView" : 8,
            "componentType" : 5126,
            "count" : 383,
            "max" : [
                0.9911062121391296,
                0.1343555748462677,
                2.022838830947876
            ],
            "min" : [
                -1.046434760093689,
                -0.013377917930483818,
                -2.108487844467163
            ],
            "type" : "VEC3"
        },
        {
            "bufferView" : 9,
            "componentType" : 5126,
            "count" : 383,
            "type" : "VEC3"
        },
        {
            "bufferView" : 10,
            "componentType" : 5126,
            "count" : 383,
            "type" : "VEC2"
        },
        {
            "bufferView" : 11,
            "componentType" : 5123,
            "count" : 1626,
            "type" : "SCALAR"
        },
        {
            "bufferView" : 12,
            "componentType" : 5126,
            "count" : 1635,
            "max" : [
                -0.2622344195842743,
                0.20797865092754364,
                -1.6477992534637451
            ],
            "min" : [
                -0.7852896451950073,
                -0.013377915136516094,
                -2.0008509159088135
            ],
            "type" : "VEC3"
        },
        {
            "bufferView" : 13,
            "componentType" : 5126,
            "count" : 1635,
            "type" : "VEC3"
        },
        {
            "bufferView" : 14,
            "componentType" : 5126,
            "count" : 1635,
            "type" : "VEC2"
        },
        {
            "bufferView" : 15,
            "componentType" : 5123,
            "count" : 8064,
            "type" : "SCALAR"
        },
        {
            "bufferView" : 16,
            "componentType" : 5126,
            "count" : 932,
            "max" : [
                0.9911062121391296,
                0.21261779963970184,
                -1.280781626701355
            ],
            "min" : [
                -1.046434760093689,
                0.11442891508340836,
                -2.1364097595214844
            ],
            "type" : "VEC3"
        },
        {
            "bufferView" : 17,
            "componentType" : 5126,
            "count" : 932,
            "type" : "VEC3"
        },
        {
            "bufferView" : 18,
            "componentType" : 5126,
            "count" : 932,
            "type" : "VEC2"
        },
        {
            "bufferView" : 19,
            "componentType" : 5123,
            "count" : 2616,
            "type" : "SCALAR"
        }
    ],
    "bufferViews" : [
        {
            "buffer" : 0,
            "byteLength" : 9600,
            "byteOffset" : 0
        },
        {
            "buffer" : 0,
            "byteLength" : 9600,
            "byteOffset" : 9600
        },
        {
            "buffer" : 0,
            "byteLength" : 6400,
            "byteOffset" : 19200
        },
        {
            "buffer" : 0,
            "byteLength" : 5964,
            "byteOffset" : 25600
        },
        {
            "buffer" : 0,
            "byteLength" : 5652,
            "byteOffset" : 31564
        },
        {
            "buffer" : 0,
            "byteLength" : 5652,
            "byteOffset" : 37216
        },
        {
            "buffer" : 0,
            "byteLength" : 3768,
            "byteOffset" : 42868
        },
        {
            "buffer" : 0,
            "byteLength" : 3984,
            "byteOffset" : 46636
        },
        {
            "buffer" : 0,
            "byteLength" : 4596,
            "byteOffset" : 50620
        },
        {
            "buffer" : 0,
            "byteLength" : 4596,
            "byteOffset" : 55216
        },
        {
            "buffer" : 0,
            "byteLength" : 3064,
            "byteOffset" : 59812
        },
        {
            "buffer" : 0,
            "byteLength" : 3252,
            "byteOffset" : 62876
        },
        {
            "buffer" : 0,
            "byteLength" : 19620,
            "byteOffset" : 66128
        },
        {
            "buffer" : 0,
            "byteLength" : 19620,
            "byteOffset" : 85748
        },
        {
            "buffer" : 0,
            "byteLength" : 13080,
            "byteOffset" : 105368
        },
        {
            "buffer" : 0,
            "byteLength" : 16128,
            "byteOffset" : 118448
        },
        {
            "buffer" : 0,
            "byteLength" : 11184,
            "byteOffset" : 134576
        },
        {
            "buffer" : 0,
            "byteLength" : 11184,
            "byteOffset" : 145760
        },
        {
            "buffer" : 0,
            "byteLength" : 7456,
            "byteOffset" : 156944
        },
        {
            "buffer" : 0,
            "byteLength" : 5232,
            "byteOffset" : 164400
        }
    ],
    "samplers" : [
        {
            "magFilter" : 9729,
            "minFilter" : 9987
        }
    ],
    "buffers" : [
        {
            "byteLength" : 169632,
            "uri" : "Smartphone.bin"
        }
    ]
}
