{
    "asset" : {
        "generator" : "Khronos glTF Blender I/O v1.8.19",
        "version" : "2.0"
    },
    "extensionsUsed" : [
        "KHR_materials_transmission"
    ],
    "scene" : 0,
    "scenes" : [
        {
            "name" : "Scene",
            "nodes" : [
                0
            ]
        }
    ],
    "nodes" : [
        {
            "mesh" : 0,
            "name" : "Plane",
            "translation" : [
                0.03616440296173096,
                0,
                0
            ]
        }
    ],
    "materials" : [
        {
            "doubleSided" : true,
            "name" : "White Plastic",
            "pbrMetallicRoughness" : {
                "baseColorFactor" : [
                    0.800000011920929,
                    0.800000011920929,
                    0.800000011920929,
                    1
                ],
                "metallicFactor" : 0,
                "metallicRoughnessTexture" : {
                    "index" : 0
                }
            }
        },
        {
            "doubleSided" : true,
            "name" : "Metal",
            "pbrMetallicRoughness" : {
                "baseColorFactor" : [
                    0.800000011920929,
                    0.800000011920929,
                    0.800000011920929,
                    1
                ],
                "metallicRoughnessTexture" : {
                    "index" : 1
                }
            }
        },
        {
            "doubleSided" : true,
            "emissiveFactor" : [
                1,
                1,
                1
            ],
            "emissiveTexture" : {
                "index" : 2
            },
            "name" : "Black Plastic",
            "pbrMetallicRoughness" : {
                "baseColorFactor" : [
                    0,
                    0,
                    0,
                    1
                ],
                "metallicFactor" : 0,
                "metallicRoughnessTexture" : {
                    "index" : 3
                }
            }
        },
        {
            "doubleSided" : true,
            "extensions" : {
                "KHR_materials_transmission" : {
                    "transmissionFactor" : 1
                }
            },
            "name" : "Glass",
            "pbrMetallicRoughness" : {
                "baseColorFactor" : [
                    0.800000011920929,
                    0.800000011920929,
                    0.800000011920929,
                    1
                ],
                "metallicFactor" : 0,
                "roughnessFactor" : 0
            }
        },
        {
            "doubleSided" : true,
            "name" : "Black Plastic.001",
            "pbrMetallicRoughness" : {
                "baseColorFactor" : [
                    0,
                    0,
                    0,
                    1
                ],
                "metallicFactor" : 0,
                "metallicRoughnessTexture" : {
                    "index" : 4
                }
            }
        },
        {
            "doubleSided" : true,
            "name" : "Black Plastic.002",
            "pbrMetallicRoughness" : {
                "baseColorFactor" : [
                    0,
                    0,
                    0,
                    1
                ],
                "metallicFactor" : 0,
                "roughnessFactor" : 0.5
            }
        }
    ],
    "meshes" : [
        {
            "name" : "Plane",
            "primitives" : [
                {
                    "attributes" : {
                        "POSITION" : 0,
                        "NORMAL" : 1,
                        "TEXCOORD_0" : 2
                    },
                    "indices" : 3,
                    "material" : 0
                },
                {
                    "attributes" : {
                        "POSITION" : 4,
                        "NORMAL" : 5,
                        "TEXCOORD_0" : 6
                    },
                    "indices" : 7,
                    "material" : 1
                },
                {
                    "attributes" : {
                        "POSITION" : 8,
                        "NORMAL" : 9,
                        "TEXCOORD_0" : 10
                    },
                    "indices" : 11,
                    "material" : 2
                },
                {
                    "attributes" : {
                        "POSITION" : 12,
                        "NORMAL" : 13,
                        "TEXCOORD_0" : 14
                    },
                    "indices" : 15,
                    "material" : 3
                },
                {
                    "attributes" : {
                        "POSITION" : 16,
                        "NORMAL" : 17,
                        "TEXCOORD_0" : 18
                    },
                    "indices" : 19,
                    "material" : 4
                },
                {
                    "attributes" : {
                        "POSITION" : 20,
                        "NORMAL" : 21,
                        "TEXCOORD_0" : 22
                    },
                    "indices" : 23,
                    "material" : 5
                }
            ]
        }
    ],
    "textures" : [
        {
            "sampler" : 0,
            "source" : 0
        },
        {
            "sampler" : 0,
            "source" : 0
        },
        {
            "sampler" : 0,
            "source" : 1
        },
        {
            "sampler" : 0,
            "source" : 2
        },
        {
            "sampler" : 0,
            "source" : 2
        }
    ],
    "images" : [
        {
            "mimeType" : "image/png",
            "name" : "back",
            "uri" : "back.png"
        },
        {
            "mimeType" : "image/png",
            "name" : "frame",
            "uri" : "frame.png"
        },
        {
            "mimeType" : "image/png",
            "name" : "smudges-001",
            "uri" : "smudges-001.png"
        }
    ],
    "accessors" : [
        {
            "bufferView" : 0,
            "componentType" : 5126,
            "count" : 1236,
            "max" : [
                0.7244272232055664,
                1.4726375341415405,
                0.009183080866932869
            ],
            "min" : [
                -0.6986536383628845,
                -1.4138439893722534,
                -0.13737091422080994
            ],
            "type" : "VEC3"
        },
        {
            "bufferView" : 1,
            "componentType" : 5126,
            "count" : 1236,
            "type" : "VEC3"
        },
        {
            "bufferView" : 2,
            "componentType" : 5126,
            "count" : 1236,
            "type" : "VEC2"
        },
        {
            "bufferView" : 3,
            "componentType" : 5123,
            "count" : 4914,
            "type" : "SCALAR"
        },
        {
            "bufferView" : 4,
            "componentType" : 5126,
            "count" : 393,
            "max" : [
                0.13197997212409973,
                0.8106328845024109,
                -0.03845961019396782
            ],
            "min" : [
                -0.09614118933677673,
                -1.3823128938674927,
                -0.1373707354068756
            ],
            "type" : "VEC3"
        },
        {
            "bufferView" : 5,
            "componentType" : 5126,
            "count" : 393,
            "type" : "VEC3"
        },
        {
            "bufferView" : 6,
            "componentType" : 5126,
            "count" : 393,
            "type" : "VEC2"
        },
        {
            "bufferView" : 7,
            "componentType" : 5123,
            "count" : 1476,
            "type" : "SCALAR"
        },
        {
            "bufferView" : 8,
            "componentType" : 5126,
            "count" : 407,
            "max" : [
                0.7183220982551575,
                1.4473652839660645,
                0.009183439426124096
            ],
            "min" : [
                -0.6803419589996338,
                -1.388571858406067,
                -0.09222827106714249
            ],
            "type" : "VEC3"
        },
        {
            "bufferView" : 9,
            "componentType" : 5126,
            "count" : 407,
            "type" : "VEC3"
        },
        {
            "bufferView" : 10,
            "componentType" : 5126,
            "count" : 407,
            "type" : "VEC2"
        },
        {
            "bufferView" : 11,
            "componentType" : 5123,
            "count" : 1626,
            "type" : "SCALAR"
        },
        {
            "bufferView" : 12,
            "componentType" : 5126,
            "count" : 1635,
            "max" : [
                0.5390597581863403,
                1.3734782934188843,
                0.009183017536997795
            ],
            "min" : [
                0.18001000583171844,
                1.1311269998550415,
                -0.1427665501832962
            ],
            "type" : "VEC3"
        },
        {
            "bufferView" : 13,
            "componentType" : 5126,
            "count" : 1635,
            "type" : "VEC3"
        },
        {
            "bufferView" : 14,
            "componentType" : 5126,
            "count" : 1635,
            "type" : "VEC2"
        },
        {
            "bufferView" : 15,
            "componentType" : 5123,
            "count" : 8064,
            "type" : "SCALAR"
        },
        {
            "bufferView" : 16,
            "componentType" : 5126,
            "count" : 885,
            "max" : [
                0.7183220982551575,
                1.4665322303771973,
                -0.0803651213645935
            ],
            "min" : [
                -0.6803419589996338,
                0.8791888356208801,
                -0.14595109224319458
            ],
            "type" : "VEC3"
        },
        {
            "bufferView" : 17,
            "componentType" : 5126,
            "count" : 885,
            "type" : "VEC3"
        },
        {
            "bufferView" : 18,
            "componentType" : 5126,
            "count" : 885,
            "type" : "VEC2"
        },
        {
            "bufferView" : 19,
            "componentType" : 5123,
            "count" : 2592,
            "type" : "SCALAR"
        },
        {
            "bufferView" : 20,
            "componentType" : 5126,
            "count" : 102,
            "max" : [
                0.0977805107831955,
                -1.2987501621246338,
                -0.02277868054807186
            ],
            "min" : [
                -0.04783766344189644,
                -1.4138439893722534,
                -0.06472792476415634
            ],
            "type" : "VEC3"
        },
        {
            "bufferView" : 21,
            "componentType" : 5126,
            "count" : 102,
            "type" : "VEC3"
        },
        {
            "bufferView" : 22,
            "componentType" : 5126,
            "count" : 102,
            "type" : "VEC2"
        },
        {
            "bufferView" : 23,
            "componentType" : 5123,
            "count" : 300,
            "type" : "SCALAR"
        }
    ],
    "bufferViews" : [
        {
            "buffer" : 0,
            "byteLength" : 14832,
            "byteOffset" : 0
        },
        {
            "buffer" : 0,
            "byteLength" : 14832,
            "byteOffset" : 14832
        },
        {
            "buffer" : 0,
            "byteLength" : 9888,
            "byteOffset" : 29664
        },
        {
            "buffer" : 0,
            "byteLength" : 9828,
            "byteOffset" : 39552
        },
        {
            "buffer" : 0,
            "byteLength" : 4716,
            "byteOffset" : 49380
        },
        {
            "buffer" : 0,
            "byteLength" : 4716,
            "byteOffset" : 54096
        },
        {
            "buffer" : 0,
            "byteLength" : 3144,
            "byteOffset" : 58812
        },
        {
            "buffer" : 0,
            "byteLength" : 2952,
            "byteOffset" : 61956
        },
        {
            "buffer" : 0,
            "byteLength" : 4884,
            "byteOffset" : 64908
        },
        {
            "buffer" : 0,
            "byteLength" : 4884,
            "byteOffset" : 69792
        },
        {
            "buffer" : 0,
            "byteLength" : 3256,
            "byteOffset" : 74676
        },
        {
            "buffer" : 0,
            "byteLength" : 3252,
            "byteOffset" : 77932
        },
        {
            "buffer" : 0,
            "byteLength" : 19620,
            "byteOffset" : 81184
        },
        {
            "buffer" : 0,
            "byteLength" : 19620,
            "byteOffset" : 100804
        },
        {
            "buffer" : 0,
            "byteLength" : 13080,
            "byteOffset" : 120424
        },
        {
            "buffer" : 0,
            "byteLength" : 16128,
            "byteOffset" : 133504
        },
        {
            "buffer" : 0,
            "byteLength" : 10620,
            "byteOffset" : 149632
        },
        {
            "buffer" : 0,
            "byteLength" : 10620,
            "byteOffset" : 160252
        },
        {
            "buffer" : 0,
            "byteLength" : 7080,
            "byteOffset" : 170872
        },
        {
            "buffer" : 0,
            "byteLength" : 5184,
            "byteOffset" : 177952
        },
        {
            "buffer" : 0,
            "byteLength" : 1224,
            "byteOffset" : 183136
        },
        {
            "buffer" : 0,
            "byteLength" : 1224,
            "byteOffset" : 184360
        },
        {
            "buffer" : 0,
            "byteLength" : 816,
            "byteOffset" : 185584
        },
        {
            "buffer" : 0,
            "byteLength" : 600,
            "byteOffset" : 186400
        }
    ],
    "samplers" : [
        {
            "magFilter" : 9729,
            "minFilter" : 9987
        }
    ],
    "buffers" : [
        {
            "byteLength" : 187000,
            "uri" : "Smartphone.bin"
        }
    ]
}
